# xmcd CD database file
#
# Track frame offsets:
#	182
#	12400
#	24987
#	37825
#	51400
#	64112
#	77812
#	91637
#	102750
#	115650
#	130437
#	141670
#	155450
#	170450
#	183187
#	196700
#
# Disc length: 2811 seconds
#
# Revision: 0
# Processed by: cddbd v1.5.2PL0 Copyright (c) Steve Scherf et al.
# Submitted via: CDex 1.70beta2
#
DISCID=c90af910
DTITLE=Peruchin - Charlie Palmieri - Cuban Rhythms
DYEAR=1948
DGENRE=Salsa
TTITLE0=Cielito Lindo
TTITLE1=Lullaby Of Broadway
TTITLE2=Sometimes I'm Happy
TTITLE3=Softly as in a Morning Sunrise
TTITLE4=The Continental
TTITLE5=I've got you under my skin
TTITLE6=Night And Day
TTITLE7=Sweet Sue
TTITLE8=Pantaleon
TTITLE9=Guaguanco Callejero
TTITLE10=Que Equivocacion
TTITLE11=Mamey Colorao
TTITLE12=La Sitiera
TTITLE13=Son de la Loma
TTITLE14=Over The RainBow
TTITLE15=Dime Mi Cielo
EXTD=YEAR: 1948
EXTT0=
EXTT1=
EXTT2=
EXTT3=
EXTT4=
EXTT5=
EXTT6=
EXTT7=
EXTT8=
EXTT9=
EXTT10=
EXTT11=
EXTT12=
EXTT13=
EXTT14=
EXTT15=
PLAYORDER=
